<svg width="351" height="184" viewBox="0 0 351 184" fill="none" xmlns="http://www.w3.org/2000/svg" xmlns:xlink="http://www.w3.org/1999/xlink">
<path d="M701 -166.5C701 27.0758 544.076 184 350.5 184C156.924 184 0 27.0758 0 -166.5C0 -360.076 156.924 -517 350.5 -517C544.076 -517 701 -360.076 701 -166.5Z" fill="#111518"/>
<path d="M701 -166.5C701 27.0758 544.076 184 350.5 184C156.924 184 0 27.0758 0 -166.5C0 -360.076 156.924 -517 350.5 -517C544.076 -517 701 -360.076 701 -166.5Z" fill="url(#pattern0_137_1407)" fill-opacity="0.7"/>
<defs>
<pattern id="pattern0_137_1407" patternUnits="userSpaceOnUse" patternTransform="matrix(16 0 0 32 0 -517)" preserveAspectRatio="none" viewBox="0 0 16 32" width="1" height="1">
<use xlink:href="#pattern0_137_1407_inner" transform="translate(-16 0)"/>
<g id="pattern0_137_1407_inner">
<rect width="8" height="8" fill="white"/>
</g>
<use xlink:href="#pattern0_137_1407_inner" transform="translate(-8 16)"/>
<use xlink:href="#pattern0_137_1407_inner" transform="translate(8 16)"/>
</pattern></defs>
</svg>
