<svg width="247" height="193" viewBox="0 0 247 193" fill="none" xmlns="http://www.w3.org/2000/svg" xmlns:xlink="http://www.w3.org/1999/xlink">
<path d="M247 -157.5C247 36.0758 90.0758 193 -103.5 193C-297.076 193 -454 36.0758 -454 -157.5C-454 -351.076 -297.076 -508 -103.5 -508C90.0758 -508 247 -351.076 247 -157.5Z" fill="#E9A60A"/>
<path d="M247 -157.5C247 36.0758 90.0758 193 -103.5 193C-297.076 193 -454 36.0758 -454 -157.5C-454 -351.076 -297.076 -508 -103.5 -508C90.0758 -508 247 -351.076 247 -157.5Z" fill="url(#pattern0_238_1768)" fill-opacity="0.7"/>
<defs>
<pattern id="pattern0_238_1768" patternUnits="userSpaceOnUse" patternTransform="matrix(16 0 0 32 -454 -508)" preserveAspectRatio="none" viewBox="0 0 16 32" width="1" height="1">
<use xlink:href="#pattern0_238_1768_inner" transform="translate(-16 0)"/>
<g id="pattern0_238_1768_inner">
<rect width="8" height="8" fill="white"/>
</g>
<use xlink:href="#pattern0_238_1768_inner" transform="translate(-8 16)"/>
<use xlink:href="#pattern0_238_1768_inner" transform="translate(8 16)"/>
</pattern></defs>
</svg>
